<?xml version="1.0" encoding="UTF-8"?> <svg xmlns="http://www.w3.org/2000/svg" width="35" height="35" viewBox="0 0 45 45" fill="none"> <path fill-rule="evenodd" clip-rule="evenodd" d="M7.94836 19.4837C7.97538 11.5326 14.4429 5.10887 22.394 5.1358C30.3451 5.16289 36.7689 11.6304 36.7419 19.5815V19.7446C36.644 24.9131 33.7581 29.6902 30.2201 33.4239C28.1967 35.5251 25.9371 37.3853 23.4864 38.9674C22.8311 39.5342 21.8591 39.5342 21.2038 38.9674C17.5504 36.5894 14.3439 33.5871 11.731 30.0978C9.40215 27.0551 8.07992 23.362 7.94836 19.5326V19.4837Z" stroke="#f40e1d" stroke-width="1.5" stroke-linecap="round" stroke-linejoin="round"></path> <path d="M22.3444 24.375C24.8928 24.375 26.9587 22.3091 26.9587 19.7606C26.9587 17.2122 24.8928 15.1463 22.3444 15.1463C19.7959 15.1463 17.73 17.2122 17.73 19.7606C17.73 22.3091 19.7959 24.375 22.3444 24.375Z" stroke="#f40e1d" stroke-width="1.5" stroke-linecap="round" stroke-linejoin="round"></path> </svg> 