<?xml version="1.0" standalone="no"?>
<!DOCTYPE svg PUBLIC "-//W3C//DTD SVG 20010904//EN" "http://www.w3.org/TR/2001/REC-SVG-20010904/DTD/svg10.dtd">
<svg version="1.0" xmlns="http://www.w3.org/2000/svg" width="1159.000000pt" height="456.000000pt" viewBox="0 0 1159.000000 456.000000" preserveAspectRatio="xMidYMid meet">
 <metadata>
  Created by potrace 1.16, written by Peter Selinger 2001-2019
 </metadata>
 <g transform="translate(0.000000,456.000000) scale(0.100000,-0.100000)" fill="black" stroke="none">
  <path d="M4453 3940 c-13 -5 -23 -13 -23 -17 0 -5 -10 -13 -22 -18 -13 -6 -34
-32 -48 -60 -25 -50 -25 -50 -25 -345 0 -282 1 -297 22 -338 19 -40 20 -47 7
-77 -23 -55 -34 -284 -34 -705 0 -561 15 -727 67 -747 10 -4 24 -13 31 -20 7
-7 26 -13 42 -13 26 0 29 -4 32 -37 l3 -38 115 0 115 0 3 38 3 37 294 0 294 0
3 -37 3 -38 95 -3 c128 -4 140 0 140 43 0 33 2 35 35 35 27 0 41 7 62 31 16
18 34 38 41 45 24 25 32 187 32 699 0 523 -8 685 -35 711 -19 19 -19 51 -1 61
25 14 36 122 36 352 0 234 -9 332 -33 355 -7 8 -25 28 -40 45 -14 17 -38 36
-52 41 -33 13 -1131 12 -1162 0z m1096 -59 c112 -21 125 -70 119 -438 -3 -217
-5 -234 -24 -260 l-21 -28 -577 -3 c-379 -1 -584 1 -596 8 -11 6 -27 27 -37
48 -16 33 -18 68 -18 305 0 171 4 270 10 275 6 4 16 20 23 35 17 40 68 58 191
67 138 11 860 3 930 -9z m87 -816 c26 -40 33 -189 33 -690 0 -532 -7 -660 -40
-687 -20 -17 -63 -18 -593 -18 -442 0 -576 3 -589 13 -44 32 -60 271 -54 834
2 271 8 437 14 445 6 7 13 33 16 58 3 25 13 50 23 57 14 10 141 13 596 13
l578 0 16 -25z" />
  <path d="M5518 3709 c-15 -9 -18 -26 -18 -117 0 -119 15 -265 31 -294 6 -12
19 -18 32 -16 31 4 45 70 53 251 6 133 5 149 -11 167 -19 22 -59 26 -87 9z" />
  <path d="M5518 2949 c-15 -8 -18 -25 -18 -107 0 -136 18 -409 31 -454 13 -49
43 -52 58 -5 14 41 31 278 31 428 0 100 -3 118 -18 132 -21 19 -58 22 -84 6z" />
  <path d="M6376 3201 c-3 -4 -28 -11 -55 -14 -74 -9 -185 -74 -215 -126 -6 -10
-23 -38 -38 -62 -15 -24 -37 -73 -50 -109 -13 -36 -26 -67 -29 -70 -12 -9 -29
-148 -29 -235 0 -89 17 -226 29 -235 4 -3 13 -24 19 -47 27 -93 70 -169 128
-230 32 -33 71 -68 86 -78 69 -43 224 -58 326 -31 47 13 146 67 154 84 2 4 20
20 41 35 20 16 44 39 53 52 14 21 13 27 -3 61 -26 55 -46 54 -107 -4 -59 -56
-91 -74 -160 -91 -95 -23 -170 5 -233 87 -66 87 -94 276 -75 513 14 183 36
260 88 318 61 67 114 86 176 62 54 -20 155 -120 166 -164 7 -29 12 -32 50 -35
l42 -3 0 150 0 151 -35 0 c-19 0 -45 -5 -58 -11 -17 -8 -38 -7 -84 5 -34 9
-75 16 -91 16 -17 0 -34 5 -37 10 -8 12 -52 13 -59 1z" />
  <path d="M710 3145 c-11 -13 -59 -15 -321 -15 l-309 0 0 -45 c0 -30 5 -47 14
-51 34 -13 37 -54 34 -501 l-3 -441 -22 -24 c-15 -16 -23 -37 -23 -61 l0 -37
160 0 160 0 0 30 c0 21 -10 40 -30 60 l-30 29 0 216 0 215 78 0 c88 -1 118
-17 128 -69 6 -27 11 -31 40 -31 l34 0 0 155 0 155 -35 0 c-28 0 -35 -4 -35
-20 0 -23 -48 -70 -72 -70 -10 0 -18 -4 -18 -10 0 -6 -27 -10 -60 -10 l-60 0
0 200 0 200 118 0 c73 -1 125 -5 138 -13 54 -31 87 -69 98 -115 12 -44 14 -47
49 -50 l37 -3 0 160 0 161 -29 0 c-16 0 -34 -7 -41 -15z" />
  <path d="M2840 3095 c0 -22 8 -43 20 -55 19 -19 20 -33 20 -236 l0 -215 -22
15 c-12 9 -33 16 -45 16 -13 0 -23 5 -23 10 0 6 -9 10 -20 10 -11 0 -20 -4
-20 -10 0 -5 -14 -10 -31 -10 -41 0 -93 -32 -119 -75 -68 -110 -61 -426 12
-528 37 -52 114 -73 202 -56 28 6 104 10 169 9 l117 -1 0 31 c0 16 -9 47 -20
67 -19 36 -20 57 -20 550 l0 513 -110 0 -110 0 0 -35z m22 -625 c15 -29 18
-62 18 -182 0 -81 -4 -158 -9 -171 -24 -61 -69 -68 -99 -13 -23 41 -25 292 -3
346 28 69 65 77 93 20z" />
  <path d="M9811 2934 c-40 -51 -39 -148 2 -191 16 -18 31 -23 72 -23 62 0 87
17 105 70 11 34 11 50 2 88 -17 63 -41 82 -107 82 -46 0 -57 -4 -74 -26z" />
  <path d="M1370 2920 c0 -5 -6 -10 -14 -10 -31 0 -56 -50 -56 -110 0 -81 24
-110 90 -110 27 0 56 3 65 6 39 15 59 113 33 168 -19 42 -118 89 -118 56z" />
  <path d="M2320 2920 c0 -5 -6 -10 -13 -10 -7 0 -25 -13 -40 -28 -22 -23 -27
-37 -27 -80 0 -71 34 -112 94 -112 23 0 51 3 64 6 70 19 68 190 -3 208 -14 4
-25 11 -25 16 0 6 -11 10 -25 10 -14 0 -25 -4 -25 -10z" />
  <path d="M10223 2838 l-73 -31 0 -73 0 -74 -30 0 c-29 0 -30 -1 -30 -50 0 -49
1 -50 30 -50 l30 0 0 -235 c0 -129 4 -235 9 -235 5 0 11 -17 15 -38 3 -24 17
-49 36 -67 29 -27 37 -30 98 -29 47 0 82 7 115 23 45 20 48 25 42 49 -11 45
-29 58 -62 43 -49 -23 -53 -4 -53 256 l0 233 56 0 55 0 -3 48 -3 47 -52 3 -53
3 0 105 0 104 -27 0 c-16 -1 -61 -15 -100 -32z" />
  <path d="M7073 2650 c-63 -26 -138 -107 -157 -170 -55 -183 -9 -420 94 -485
77 -48 187 -56 277 -19 50 21 79 48 102 98 10 23 27 59 38 81 14 32 18 64 18
156 0 68 -5 122 -11 130 -6 8 -18 35 -28 61 -20 53 -85 124 -133 144 -36 15
-166 18 -200 4z m126 -99 c29 -29 33 -68 29 -272 -4 -205 -12 -239 -57 -239
-16 1 -33 11 -46 28 -18 25 -20 43 -20 217 0 217 6 262 38 275 32 13 35 12 56
-9z" />
  <path d="M7825 2648 c-11 -6 -28 -21 -37 -32 -17 -21 -17 -21 -18 7 l0 27
-120 0 -120 0 0 -40 c0 -27 7 -47 20 -60 19 -19 20 -33 20 -233 0 -193 -2
-216 -20 -250 -11 -20 -20 -50 -20 -67 l0 -30 140 0 140 0 0 31 c0 18 -9 47
-21 65 -19 31 -20 46 -17 225 3 189 3 191 28 211 l24 20 23 -29 c22 -27 23
-36 23 -215 0 -104 -4 -188 -8 -188 -15 0 -42 -58 -42 -89 l0 -31 290 0 290 0
0 34 c0 19 -9 45 -22 62 -22 27 -23 39 -28 269 -5 254 -7 266 -56 304 -21 16
-41 21 -91 21 -71 0 -94 -9 -129 -49 l-23 -26 -23 27 c-13 14 -33 31 -45 37
-28 14 -132 14 -158 -1z m320 -150 c18 -21 20 -38 20 -213 l0 -190 -27 -30
-27 -29 -20 23 c-29 33 -33 66 -29 255 3 162 4 168 27 187 29 24 32 24 56 -3z" />
  <path d="M9405 2648 c-11 -6 -28 -21 -37 -32 -17 -21 -17 -21 -18 7 l0 27
-120 0 -120 0 0 -45 c0 -25 4 -45 8 -45 24 0 32 -60 32 -253 0 -183 -2 -206
-20 -240 -11 -20 -20 -50 -20 -67 l0 -30 140 0 140 0 0 33 c0 17 -9 46 -20 62
-18 27 -20 47 -20 201 0 131 4 180 15 208 18 43 45 47 69 11 13 -20 16 -56 16
-210 0 -102 -4 -185 -8 -185 -15 0 -42 -58 -42 -89 l0 -31 140 0 140 0 0 29
c0 16 -9 48 -20 72 -17 39 -20 66 -20 240 0 223 -10 275 -60 321 -27 24 -39
28 -93 28 -34 0 -71 -6 -82 -12z" />
  <path d="M10680 2651 c-14 -4 -42 -25 -62 -45 -34 -34 -38 -43 -38 -91 0 -50
2 -54 30 -64 43 -14 75 1 99 46 11 21 31 46 45 55 22 16 25 16 37 1 8 -9 15
-48 17 -88 l4 -72 -59 -5 c-123 -12 -201 -85 -218 -205 -11 -81 3 -152 35
-184 55 -55 191 -62 250 -13 l28 24 27 -24 c35 -32 73 -40 127 -26 59 16 68
26 68 76 0 40 -2 44 -24 44 -14 0 -28 6 -33 13 -4 6 -10 104 -13 217 -6 226
-12 251 -79 315 -30 27 -37 29 -124 32 -50 1 -103 -1 -117 -6z" />
  <path d="M11389 2647 c-8 -7 -21 -21 -27 -32 -11 -19 -11 -18 -12 8 l0 27
-105 0 -105 0 0 -45 c0 -25 4 -45 9 -45 5 0 17 -7 25 -16 14 -13 16 -49 16
-233 l0 -218 -25 -29 c-16 -18 -25 -41 -25 -61 l0 -33 140 0 140 0 0 33 c0 17
-9 46 -20 62 -18 27 -20 47 -20 227 0 108 4 199 8 202 5 3 16 -4 25 -15 11
-13 30 -19 57 -19 34 0 42 4 56 32 19 36 16 127 -5 152 -16 19 -108 21 -132 3z" />
  <path d="M2023 2638 c-4 -7 -17 -21 -29 -31 -19 -16 -23 -16 -59 -1 -53 22
-164 15 -227 -14 -73 -34 -93 -75 -93 -193 0 -87 2 -99 28 -137 15 -23 33 -42
40 -42 6 0 18 -4 26 -9 14 -9 5 -35 -22 -63 -21 -22 -54 -81 -66 -120 -10 -30
-9 -42 4 -67 18 -36 23 -36 102 -16 68 18 166 19 214 4 96 -32 93 -128 -6
-175 -63 -29 -79 -30 -115 -4 -21 15 -29 30 -33 65 -5 51 -33 85 -67 85 -11 0
-20 -3 -20 -8 0 -4 -10 -12 -22 -17 -15 -6 -26 -24 -33 -49 -13 -52 15 -102
74 -133 38 -20 58 -23 150 -23 123 0 174 17 212 71 12 19 28 37 34 41 6 4 10
47 10 101 0 77 -3 97 -18 112 -10 10 -23 28 -27 41 -5 12 -31 35 -57 51 -44
26 -56 28 -150 28 -90 0 -100 2 -92 16 6 12 28 18 82 21 126 8 200 75 212 191
4 42 2 77 -8 110 l-15 47 43 0 c47 0 55 9 55 61 0 54 -15 69 -70 69 -28 0 -52
-5 -57 -12z m-145 -123 c7 -14 12 -66 12 -115 0 -102 -12 -140 -46 -140 -36 0
-47 34 -47 140 0 55 5 105 12 118 16 31 55 29 69 -3z" />
  <path d="M8460 2609 c0 -28 6 -46 18 -55 15 -11 18 -39 22 -261 6 -270 10
-294 65 -323 41 -22 132 -19 183 6 32 17 42 18 42 8 0 -11 26 -14 125 -14
l125 0 0 34 c0 23 -7 39 -20 49 -36 25 -40 61 -40 333 l0 264 -115 0 -115 0 0
-40 c0 -27 7 -47 20 -60 19 -19 20 -33 20 -205 0 -117 -4 -193 -12 -209 -14
-33 -45 -43 -67 -22 -14 14 -16 52 -19 276 l-3 260 -115 0 -114 0 0 -41z" />
  <path d="M9750 2609 c0 -30 6 -45 23 -59 22 -18 22 -22 22 -237 0 -211 -1
-219 -22 -247 -14 -17 -23 -43 -23 -62 l0 -34 145 0 145 0 0 32 c0 21 -9 42
-27 61 l-28 28 -3 172 c-4 212 4 278 36 292 18 8 22 18 22 52 l0 43 -145 0
-145 0 0 -41z" />
  <path d="M1058 2614 c-21 -13 -38 -20 -38 -14 0 6 -41 10 -105 10 l-105 0 0
-35 c0 -24 5 -35 15 -35 29 0 35 -39 35 -244 0 -206 -7 -256 -37 -256 -8 0
-13 -12 -13 -35 l0 -35 135 0 135 0 0 30 c0 17 -9 47 -20 67 -18 34 -20 57
-20 210 0 170 6 201 33 174 6 -6 30 -11 54 -11 51 0 63 16 63 90 0 57 -13 90
-35 90 -8 0 -15 5 -15 10 0 18 -44 9 -82 -16z" />
  <path d="M3430 2630 c0 -5 -15 -10 -34 -10 -63 0 -148 -74 -179 -157 -18 -48
-22 -79 -22 -183 0 -115 2 -130 27 -183 53 -114 147 -162 267 -136 96 20 166
97 145 157 -15 42 -45 39 -95 -7 -53 -49 -85 -53 -119 -14 -20 24 -25 41 -28
115 l-4 88 131 0 131 0 0 53 c-1 147 -72 267 -160 267 -11 0 -20 5 -20 10 0 6
-9 10 -20 10 -11 0 -20 -4 -20 -10z" />
  <path d="M4020 2632 c0 -4 -16 -15 -35 -24 -19 -8 -35 -12 -35 -7 0 5 -45 9
-100 9 l-100 0 0 -30 c0 -17 9 -39 20 -50 19 -19 20 -33 20 -230 0 -200 -7
-260 -32 -260 -4 0 -8 -16 -8 -35 l0 -35 135 0 135 0 0 30 c0 17 -11 48 -25
70 -24 38 -25 46 -25 209 0 148 2 170 17 175 9 4 21 2 27 -4 5 -5 27 -10 48
-10 46 0 58 19 58 90 0 57 -13 90 -35 90 -8 0 -15 5 -15 10 0 6 -11 10 -25 10
-14 0 -25 -4 -25 -8z" />
  <path d="M1270 2579 c0 -17 9 -42 20 -56 19 -24 20 -41 20 -227 0 -184 -2
-204 -20 -231 -11 -16 -20 -45 -20 -62 l0 -33 130 0 130 0 0 33 c0 17 -9 46
-20 62 -18 27 -20 47 -20 231 0 186 1 203 20 227 11 14 20 39 20 56 l0 31
-130 0 -130 0 0 -31z" />
  <path d="M2210 2579 c0 -17 9 -42 20 -56 18 -24 20 -41 20 -227 0 -183 -2
-204 -20 -234 -11 -18 -20 -46 -20 -62 l0 -30 135 0 135 0 0 30 c0 16 -9 44
-20 62 -18 30 -20 51 -20 234 0 186 2 203 20 227 11 14 20 39 20 56 l0 31
-135 0 -135 0 0 -31z" />
  <path d="M7263 1844 c-34 -14 -41 -32 -22 -51 8 -8 2 -32 -23 -90 -19 -43 -43
-96 -52 -119 -10 -23 -29 -53 -42 -67 -42 -45 -33 -57 41 -57 49 0 65 3 65 14
0 8 -7 17 -16 20 -9 3 -14 15 -12 28 3 21 9 23 81 26 73 3 78 1 86 -20 7 -16
5 -26 -5 -34 -32 -25 -14 -34 71 -34 77 0 85 2 85 19 0 11 -4 22 -8 25 -11 6
-104 193 -141 281 -32 78 -48 86 -108 59z" />
  <path d="M9446 1850 c-69 -21 -115 -99 -116 -197 0 -76 9 -101 56 -152 l36
-41 103 0 103 0 36 41 c46 51 56 76 56 148 0 139 -70 212 -200 210 -25 0 -58
-5 -74 -9z m131 -59 c27 -23 46 -121 37 -192 -8 -60 -42 -99 -88 -99 -31 0
-66 24 -66 46 0 7 -5 14 -11 16 -8 3 -12 35 -12 90 -1 79 1 89 26 122 22 28
35 36 60 36 18 -1 42 -9 54 -19z" />
  <path d="M9754 1829 c3 -17 6 -107 6 -200 l0 -169 96 0 c87 0 97 2 114 23 43
51 31 168 -20 195 -14 7 -42 11 -62 10 l-38 -4 0 88 0 88 -51 0 -51 0 6 -31z" />
  <path d="M8653 1740 c-13 -6 -23 -18 -23 -30 0 -11 -4 -20 -10 -20 -5 0 -10
-9 -10 -20 0 -11 5 -20 10 -20 6 0 10 -31 10 -72 0 -117 1 -118 77 -118 55 0
64 2 61 17 -2 9 -14 20 -28 23 -23 5 -25 10 -28 78 -3 71 -3 72 23 72 18 0 25
5 25 20 0 15 -7 20 -25 20 -21 0 -25 5 -25 30 0 32 -14 37 -57 20z" />
  <path d="M10263 1740 c-13 -6 -23 -18 -23 -30 0 -11 -4 -20 -10 -20 -5 0 -10
-9 -10 -20 0 -11 5 -20 10 -20 6 0 10 -31 10 -72 0 -117 1 -118 76 -118 51 0
64 3 64 15 0 9 -11 20 -25 25 -23 9 -25 14 -25 80 0 63 2 70 20 70 13 0 20 7
20 20 0 13 -7 20 -20 20 -16 0 -20 7 -20 30 0 25 -4 30 -22 29 -13 0 -33 -4
-45 -9z" />
  <path d="M7567 1678 c-29 -10 -41 -38 -35 -84 2 -23 12 -33 50 -51 49 -23 64
-38 49 -48 -6 -3 -15 4 -21 15 -7 13 -21 20 -40 20 -34 0 -44 -12 -36 -46 6
-23 10 -24 78 -24 56 0 74 4 84 18 21 26 17 78 -7 101 -13 12 -17 21 -10 26
19 11 13 63 -8 75 -24 12 -67 12 -104 -2z" />
  <path d="M7793 1674 c-52 -26 -69 -110 -36 -179 l17 -35 81 0 c78 0 81 1 98
29 19 33 23 121 7 152 -25 46 -108 62 -167 33z" />
  <path d="M8060 1683 c-73 -29 -102 -143 -51 -202 16 -18 29 -21 91 -21 58 0
76 4 86 18 32 41 10 50 -63 27 -31 -10 -46 24 -38 86 7 51 21 65 27 27 2 -19
10 -24 41 -26 36 -3 37 -2 37 31 0 19 -6 40 -14 46 -16 13 -95 23 -116 14z" />
  <path d="M8423 1683 c-29 -6 -45 -27 -41 -55 4 -30 39 -35 63 -8 23 25 35 26
35 0 0 -13 -9 -21 -27 -25 -64 -13 -78 -27 -81 -83 l-3 -52 115 0 c109 0 116
1 116 20 0 11 -7 20 -15 20 -12 0 -15 13 -15 60 0 112 -39 144 -147 123z" />
  <path d="M8980 1677 c-18 -9 -25 -21 -25 -42 0 -37 32 -46 60 -15 23 25 35 26
35 0 0 -13 -9 -21 -27 -25 -64 -13 -78 -27 -81 -83 l-3 -52 115 0 c109 0 116
1 116 20 0 11 -7 20 -15 20 -12 0 -15 13 -15 60 0 70 -19 115 -52 124 -37 9
-81 7 -108 -7z" />
  <path d="M10065 1678 c-29 -16 -35 -28 -35 -70 0 -29 5 -41 25 -53 14 -8 36
-22 50 -30 15 -9 23 -21 19 -27 -5 -8 -12 -4 -22 10 -15 23 -56 30 -67 11 -4
-5 -4 -21 -1 -35 6 -23 10 -24 78 -24 56 0 74 4 84 18 28 36 9 111 -29 112 -7
0 -4 7 6 14 27 21 22 65 -9 76 -33 13 -74 12 -99 -2z" />
  <path d="M10460 1672 c-62 -30 -78 -136 -29 -188 19 -21 32 -24 89 -24 54 0
70 4 85 20 34 38 -8 69 -46 34 -23 -21 -45 -12 -51 20 -5 26 -4 26 53 26 l59
0 0 39 c0 77 -80 114 -160 73z" />
  <path d="M10700 1677 c-18 -9 -25 -21 -25 -42 0 -37 29 -45 56 -16 25 26 39
27 39 1 0 -13 -9 -21 -27 -25 -64 -13 -78 -27 -81 -83 l-3 -52 115 0 c98 0
116 2 116 15 0 9 -7 18 -15 21 -11 5 -15 22 -15 66 0 68 -19 113 -52 122 -37
9 -81 7 -108 -7z" />
  <path d="M10945 1678 c-29 -16 -35 -28 -35 -70 0 -29 5 -41 25 -53 14 -8 36
-22 50 -30 15 -9 23 -21 19 -27 -5 -8 -12 -4 -22 10 -15 23 -56 30 -67 11 -4
-5 -4 -21 -1 -35 6 -23 10 -24 78 -24 56 0 74 4 84 18 21 27 17 78 -8 103 -16
15 -19 23 -10 26 6 3 12 18 12 34 0 22 -6 32 -26 39 -33 13 -74 12 -99 -2z" />
  <path d="M11173 1683 c-57 -12 -87 -107 -58 -181 l17 -42 75 0 c60 0 78 4 89
18 7 9 14 23 14 30 0 14 -46 16 -55 2 -10 -17 -34 -11 -45 11 -7 13 -9 40 -5
70 7 51 21 65 27 27 2 -18 11 -24 36 -26 30 -3 32 -2 32 31 0 19 -7 40 -15 47
-16 13 -78 21 -112 13z" />
  <path d="M11380 1677 c-34 -17 -36 -70 -3 -75 14 -2 26 4 33 17 14 27 30 27
30 1 0 -13 -9 -22 -27 -26 -58 -13 -73 -30 -73 -84 l0 -50 104 0 105 0 -5 73
c-8 98 -21 136 -51 148 -34 13 -83 11 -113 -4z" />
  <path d="M8225 1570 l0 -110 55 0 55 0 0 110 0 110 -55 0 -55 0 0 -110z" />
  <path d="M8795 1570 l0 -110 55 0 55 0 0 110 0 110 -55 0 -55 0 0 -110z" />
 </g>
</svg>